<svg width="141" height="143" viewBox="0 0 141 143" fill="none" xmlns="http://www.w3.org/2000/svg">
<ellipse cx="70.4091" cy="71.8098" rx="48.2545" ry="52.2982" transform="rotate(142.401 70.4091 71.8098)" fill="url(#paint0_radial_596_6005)"/>
<ellipse cx="66.3873" cy="67.9458" rx="48.2545" ry="52.2982" fill="url(#paint1_radial_596_6005)"/>
<path d="M66.0206 128.472C54.9132 128.472 44.9791 125.891 36.2183 120.728C27.614 115.565 20.887 108.369 16.0373 99.1389C11.1876 89.9088 8.7627 79.4272 8.7627 67.694C8.7627 55.9608 11.1876 45.4792 16.0373 36.2491C21.0434 26.8625 27.8487 19.5879 36.453 14.4253C45.2138 9.1063 55.1479 6.44678 66.2553 6.44678C77.2063 6.44678 86.9839 9.1063 95.5882 14.4253C104.349 19.5879 111.154 26.7843 116.004 36.0144C121.01 45.2445 123.513 55.7262 123.513 67.4593C123.513 79.1925 121.01 89.6742 116.004 98.9043C111.154 108.134 104.349 115.409 95.5882 120.728C86.9839 125.891 77.128 128.472 66.0206 128.472ZM66.2553 115.8C79.24 115.8 89.6434 111.341 97.4656 102.424C105.444 93.507 109.433 81.852 109.433 67.4593C109.433 57.9163 107.634 49.5467 104.036 42.3503C100.438 34.9975 95.3536 29.2874 88.783 25.2199C82.2124 21.1524 74.7032 19.1186 66.2553 19.1186C57.651 19.1186 50.0635 21.1524 43.4929 25.2199C36.9223 29.2874 31.838 35.0758 28.2398 42.585C24.6416 49.9378 22.8425 58.3075 22.8425 67.694C22.8425 77.0806 24.6416 85.4502 28.2398 92.803C31.838 99.9994 36.9223 105.631 43.4929 109.699C50.0635 113.766 57.651 115.8 66.2553 115.8Z" fill="black"/>
<path d="M66.2553 115.8C79.24 115.8 89.6434 111.341 97.4656 102.424C105.444 93.507 109.433 81.852 109.433 67.4593C109.433 57.9163 107.634 49.5467 104.036 42.3503C100.438 34.9975 95.3536 29.2874 88.783 25.2199C82.2124 21.1524 74.7032 19.1186 66.2553 19.1186C57.651 19.1186 50.0635 21.1524 43.4929 25.2199C36.9223 29.2874 31.838 35.0758 28.2398 42.585C24.6416 49.9378 22.8425 58.3075 22.8425 67.694C22.8425 77.0806 24.6416 85.4502 28.2398 92.803C31.838 99.9994 36.9223 105.631 43.4929 109.699C50.0635 113.766 57.651 115.8 66.2553 115.8Z" fill="url(#paint2_radial_596_6005)"/>
<defs>
<radialGradient id="paint0_radial_596_6005" cx="0" cy="0" r="1" gradientUnits="userSpaceOnUse" gradientTransform="translate(123.786 8.45889) rotate(114.775) scale(127.373 117.524)">
<stop stop-color="#0D5370"/>
<stop offset="0.828125" stop-color="#0D5370" stop-opacity="0"/>
</radialGradient>
<radialGradient id="paint1_radial_596_6005" cx="0" cy="0" r="1" gradientUnits="userSpaceOnUse" gradientTransform="translate(119.764 4.59488) rotate(116.698) scale(155.401 143.386)">
<stop stop-color="#EE6C59"/>
<stop offset="0.677083" stop-color="#EE6C59" stop-opacity="0"/>
</radialGradient>
<radialGradient id="paint2_radial_596_6005" cx="0" cy="0" r="1" gradientUnits="userSpaceOnUse" gradientTransform="translate(19.7499 77.1114) rotate(41.8396) scale(62.237 58.5267)">
<stop stop-color="#CEE6C0"/>
<stop offset="1" stop-color="#CEE6C0" stop-opacity="0"/>
</radialGradient>
</defs>
</svg>
