<svg width="63" height="63" viewBox="0 0 63 63" fill="none" xmlns="http://www.w3.org/2000/svg">
<path d="M10.5 42V26.8871C10.5 26.5944 10.808 26.404 11.0698 26.5349L27.9782 34.9891C30.1952 36.0976 32.8048 36.0976 35.0218 34.9891L51.9302 26.5349C52.192 26.404 52.5 26.5944 52.5 26.8871V42C52.5 44.8995 50.1495 47.25 47.25 47.25H15.75C12.8505 47.25 10.5 44.8995 10.5 42Z" fill="#EE6C59"/>
<path d="M10.5 21V23.3816C10.5 23.5308 10.5843 23.6671 10.7177 23.7338L27.9782 32.3641C30.1952 33.4726 32.8048 33.4726 35.0218 32.3641L52.2823 23.7338C52.4157 23.6671 52.5 23.5308 52.5 23.3816V21C52.5 18.1005 50.1495 15.75 47.25 15.75H15.75C12.8505 15.75 10.5 18.1005 10.5 21Z" fill="#CEE6C0"/>
</svg>
