<svg xmlns="http://www.w3.org/2000/svg" viewBox="0 0 848.97 846.24"><g id="Layer_2" data-name="Layer 2"><g id="Layer_1-2" data-name="Layer 1"><path d="M630.5.85c-.3.5-3.6,2-7.3,3.2a104.33,104.33,0,0,0-26.6,12.7l-6.8,4.7-13.7.5c-13,.5-13.8.7-18,3.5-5.9,4-13.8,4.5-24.9,1.6-9.7-2.5-13.3-2.6-17.3-.5-2.8,1.4-3.4,1.4-7,0-8.5-3.4-14.7-.9-19.1,7.8-3,5.9-4.3,6.5-12.9,6.3-7.4-.2-7.7-.1-20,6.1-14.6,7.4-21,8.7-29.8,5.7l-5.2-1.7-4,2.8c-5.1,3.5-12.5,4.2-20.2,2a41.81,41.81,0,0,0-7-1.6c-.8,0-4,1.9-7.2,4.2-5.2,3.9-5.6,4.5-5,7.3a84,84,0,0,1,1.3,9.9c.7,6.6.9,7,4.2,8.9a39.52,39.52,0,0,1,7,5.2c5.5,5.2,11,8.5,14.2,8.5,2.4,0,4.3-1.3,8.9-6.1,3.2-3.4,5.9-6.5,5.9-6.9,0-1.8,3.2-1.8,5,0,4.2,4.2,2,13.7-4.8,21.2a56.92,56.92,0,0,0-5,6.3c-1.7,3.3,1,22.7,4.3,30.7s2.8,10.5-2.8,13.1c-4.6,2.2-7.4,2.1-12.2-.3a19.1,19.1,0,0,0-5.3-2,8.94,8.94,0,0,0-3.9,2c-3.5,2.7-7.7,2.5-13.1-.6-3.8-2.2-4.6-2.4-5.8-1.2-1.1,1-1.2,2.2-.4,4.8,1.6,5.5,1.2,13.4-1.1,20.2-3,9.4-8.3,16.4-16.9,22.2-4,2.8-7.7,6.1-8.1,7.2-.9,2.6,1,6.6,5.1,10.9,4.7,4.9,6.3,9.9,5.5,17.3-.8,7.6.3,9.3,7.6,11.7,4.8,1.6,6.9,3.7,6.9,6.9,0,2.5-2.6,4.3-8.7,6.1-10.6,3.1-10.7,3.3-6,14.7,3.2,7.9,4.3,9.9,11.2,19.8l2.9,4.2-2.3,1.9a10.47,10.47,0,0,1-6.5,1.9c-4.8,0-13.1,3.7-16.4,7.3-2.3,2.4-2.3,2.6-.7,5.8,4.1,7.9,3.7,13.3-1.6,19.3-5.4,6.2-7.5,16.3-4.3,21.1,1.5,2.3,3.2,3,11.8,5,1.6.3,5.8,3.4,9.3,6.8,5.3,5,7,6.1,9.8,6.1a8.68,8.68,0,0,0,5.7-2.1,19.77,19.77,0,0,1,5.1-3.2c3.5-1.4,15.1-1.4,19.5-.2,5.1,1.5,13.2-1.8,21.8-8.9,7.3-6.1,16.2-11,19.9-11,3.5,0,13.8-5.5,20.2-10.8,3.4-2.9,13.1-11.8,21.5-20s16.9-15.7,18.8-16.9a63.06,63.06,0,0,1,11.5-4.3,81.43,81.43,0,0,0,16.5-7c4.7-2.7,14.6-7.7,22.2-11,11.3-5.1,14.7-6.1,20-6.3,3.4-.2,6.9-.6,7.5-1s2.5-4.7,3.9-9.5,4.6-14,7-20.5c6.3-17,6-19.6-3.1-24.5a19.38,19.38,0,0,1-6.8-6l-2-3.3,3.2-6.1c4.3-8.3,4.1-9.3-2.1-12.4-6.4-3.2-9.8-6.1-9.8-8.5,0-1,1.4-3.9,3-6.6a93.57,93.57,0,0,0,6.5-14.7c2-5.4,4-10.7,4.6-11.8,1.6-2.9,7-5.8,10.9-5.8,9.1,0,16.5,4.2,23.1,12.9,7.2,9.7,11.8,10.2,16,1.8,3.3-6.3,3.7-15.6,1-20.7-2.5-4.9-2.6-6.7-.5-11.9,2-5,4-5.7,10.1-3.5,4.6,1.6,5,1.6,8.6,0,4.4-2.1,10.4-8.5,11.3-12.1,1.1-4.2-1.4-8.2-8-12.8s-8.6-8-7-12.5c.8-2.3,1.6-2.8,5.9-3.2l5-.5.1-10.5c.2-10.7,1.6-17.1,7.4-32.6,3-7.9,2.4-9.4-3.5-9.4-7.6,0-9.5-1.5-15-12.1-3.6-7-8.7-12.3-14.1-14.5C635.6-.25,631.4-.45,630.5.85Zm10.3,2.5c5.8,2.9,7,4.3,11.6,13.2,5.2,9.9,7.3,11.7,14.6,12.2,3.5.3,6,.9,6,1.6s-2.1,7.2-4.7,14.6c-4.3,12.6-4.6,14.2-4.7,24l-.1,10.4-3.9.2c-4.7.1-7.6,3.1-7.6,7.6,0,4.3,1.3,6.2,7,9.8,10.5,6.8,11.4,10.6,4,18.5-5.8,6.1-8.5,6.9-15.1,4.8-5.9-1.9-7.3-1.4-9.9,3.6s-2.5,9.1.1,13.6c1.8,3,2.1,4.7,1.7,9.8-.6,7.1-3.8,14.2-6.7,15.2s-5.6-.9-10.1-7.1c-7.2-9.7-16.1-14.2-25.7-13.1-6.3.7-10.2,5-13.3,14.3a119.56,119.56,0,0,1-9.5,21.1c-3,4.9-1.4,8,6.5,12.3,3.6,1.9,6.6,4.3,6.8,5.2s-.8,3.4-2.2,5.6a27.8,27.8,0,0,0-3.1,6.4c-.9,3.5,2.6,8.9,7.3,11.3,9.4,4.8,10.1,7.5,4.7,21.4-1.9,5-5,14.2-7,20.5-3.6,11.6-4.7,13.1-8.9,12-1.2-.3-4.3,0-7,.6-4.4,1-23.2,8.9-30.1,12.7-15,8.2-19.8,10.4-25.1,11.6-10.3,2.4-13,4.4-35.6,26.4-16.2,15.8-25.2,22.5-32.2,24.4-10.2,2.6-13.6,4.3-22.5,11.2-10.2,8.1-17.5,11.3-21.8,9.6-1.3-.5-5.9-.9-10.1-.9-7.7,0-8.2.2-17.3,5.4-3,1.7-3.5,1.7-6.5.3a18.16,18.16,0,0,1-5.6-4.8c-3-4-9.1-7.6-14.6-8.5-9.5-1.5-11-12.4-3.1-22.4,6.1-7.7,6.9-13.6,2.9-20.7-1.7-2.8-1.7-3.3-.3-5.3,2.1-3,11-7,15.6-7,5.4,0,9.6-2.5,9.7-5.7,0-.6-1.6-3-3.6-5.4-4.9-5.9-13.4-23.3-13.4-27.6,0-.6,3.3-2.1,7.3-3.3,7.6-2.3,10.7-4.8,10.7-8.5,0-2.9-2.6-5.2-8.4-7.1s-6.9-3.9-6-10.4c.9-7-1-12.9-6.2-19-6.7-7.9-6.2-9.5,4.6-16.8A43.34,43.34,0,0,0,375.1,182c2.6-6.6,3.6-18.5,2-23.1s-.1-5.4,5-2.4c5.3,3,9.8,3.2,13.2.5a8.94,8.94,0,0,1,3.9-2,19.1,19.1,0,0,1,5.3,2c4.6,2.4,7.4,2.5,12,.6,7-3,7.7-7.3,3-18a43.88,43.88,0,0,1-2.9-13.1c-.4-4.4-.9-8.9-1.2-10.1-.4-1.5.9-3.8,4.4-8,6.4-7.7,8.2-11.3,8.2-16.8,0-3.3-.6-5.2-2.3-7.2-2.9-3.3-4.1-2.8-9.8,4.2-4.7,5.6-8.5,8.4-11.5,8.4-2.3,0-9-4.4-14.4-9.6a24.92,24.92,0,0,0-6.2-4.3c-2.5-.9-2.7-1.5-3.1-8.3a80.14,80.14,0,0,0-1.1-9.8c-.5-2.1.1-3,3.8-5.6,6-4.4,7.7-4.7,13.7-3,8.5,2.6,14.7,2.1,20.3-1.4l4.8-3.1,5,1.7c8.6,2.8,15,1.6,29.7-5.7,12.2-6,12.8-6.2,20.1-6.1,8.9.2,10.9-.9,14-7.2,4-8.3,9-10.3,17.6-7,3.8,1.4,4.4,1.4,7.2,0,4-2.1,8.1-2,17.1.4,13.2,3.5,18.1,2.9,29.5-3.7,1.3-.8,6.3-1.3,13.4-1.3,12.7,0,15.2-.7,23.8-6.9A87.92,87.92,0,0,1,615.9,8c5.8-2.2,12-4.7,13.6-5.5C633.7.45,635.4.65,640.8,3.35Z"/><path d="M732.2,22.45a15.69,15.69,0,0,0-4.2,5.9c-2.5,7.6-7.5,8.6-21,4.1-9.8-3.3-18.8-3.7-23.7-1.1-8.6,4.4-15.9,30.5-13,46.3.9,5.4-1.5,8.3-6.8,8.3-2.4,0-3.8.5-4.2,1.6-.9,2.5.8,4.7,5.7,7,6.1,3,8,5.7,8,11.3s-1.9,9.3-9,17.7c-5.7,6.7-8,7.7-11.6,4.9-2.7-2-7.8-1.9-9.7.3-2.2,2.4-2.2,2.4,1.8,7.2,4.6,5.6,4.5,8.4-.9,19.5-5,10.1-9.9,16.5-12.6,16.5-1,0-3.4-2.1-5.3-4.8-5.3-7.1-14.7-15.9-18.9-17.7-9.7-4-15.3-.6-18.2,11a65.52,65.52,0,0,1-5.2,13.3c-2.1,3.7-3.3,7-2.9,8.1s2.8,3,5.5,4.5c9.3,5.1,10.6,8.9,5.4,16.8-2.9,4.6-3,5.8-.4,9.1,1.7,2.2,5.3,3.9,14.8,7.2,1,.4.9,1.1-.3,3.4a20.81,20.81,0,0,0-1.5,7.5,25.67,25.67,0,0,1-3,10.8c-6.2,13.2-8.3,19.4-8.9,26.6-.7,8.8-2.1,10.2-9.5,10.2a42,42,0,0,0-9.1,1.1c-5.9,1.6-31,13.5-39,18.4a52.07,52.07,0,0,1-12,5.6c-11.1,2.6-11.8,4.3-6,12.8a27.72,27.72,0,0,1,4.1,8.1c.6,2.6.2,3.2-4.2,5.9-8.2,5-9.4,6.1-9.4,8.4,0,3.4,1.9,4.7,6.5,4.7,7,0,7.9,1.4,8.6,12.7s1.7,13.5,7.6,16.3c7.1,3.3,6.5,10.3-1.1,13.5-4,1.7-9.2,7.5-11.7,12.9-2.1,4.9-1.4,6.7,4.9,12,8.2,6.8,15.2,6.6,21.9-.5,4.3-4.6,10.8-8.2,17.7-10a21.59,21.59,0,0,0,14.9-12.2c3.7-7.9,5.3-8.7,16.8-8.7,12.5,0,14.1-1.1,16.4-11.1,1.9-8.5,3.7-12.3,7.9-16.7,6.3-6.8,10.4-7.6,19-3.6,10.9,5,20.2,4.3,29.8-2.3,10.5-7.1,15.3-8.4,23.1-6.2,6.4,1.7,6.8,3.5,4.7,18.1-1,7-2.2,14.2-2.5,16-1.3,5.7-5.3,12.6-9.5,15.9l-4,3.3,2.2,2.3c2.8,3,17.9,7.7,21.9,6.8,1.7-.4,4.3-2.3,6.1-4.6,3.7-4.6,6.2-4.9,13.3-1.9,5.7,2.5,9.7,2.5,11.8.2.8-.9,2.5-4.7,3.7-8.5,2.3-6.9,4.7-9.7,8.6-9.7,2.4,0,6.4,4.3,6.4,6.8,0,.8,1.1,3.4,2.5,5.8,3.2,5.5,7,6.9,12.8,4.8,9.4-3.6,12.9-3.2,20.8,2.3a60.67,60.67,0,0,0,10.2,5.5c10.7,4.1,27.1.7,25.2-5.3-1.8-5.6,4.3-14.2,13.4-18.9s13.4-10.8,11.7-17.4c-.3-1.3-3.3-5.6-6.7-9.7-15.4-18.4-15.9-30.9-1.7-50.9,3.5-5.1,4.3-7,4.3-10.7,0-4.7.5-4.1-10.6-13.6-3-2.6-3.1-3-2.6-7.7.3-2.8,2.4-9,4.5-13.8,7.8-17.2,8.2-28.9,1.7-45.2-4.7-11.7-5.2-16.8-3-29.5a67.08,67.08,0,0,0,1-16.6c-.7-6.4-.6-6.7,2.4-10.1,4.7-5.3,4.1-7.7-2.9-13.8s-8.5-8.5-9.3-15.9c-.9-7.8-4.6-14.4-13.4-24.2a167.56,167.56,0,0,1-11-13.2c-4.2-6.1-7.4-7.5-20.2-9.2-6-.8-12.1-1.9-13.7-2.5s-5.6-3.9-8.9-7.3a90.88,90.88,0,0,0-10.7-9.4c-6-4.1-6.6-6.5-4.3-16.1,2.1-8.1,1.7-9.2-3.6-9.2a8.2,8.2,0,0,1-4.4-1.4c-1.8-1.3-1.8-1.9-.8-5.7a24.35,24.35,0,0,0,.9-4.7C735.4,20.05,733.9,21.05,732.2,22.45Zm1.1,3.8c-.7,4.3,1.6,6.7,6.3,6.7,4.4,0,4.9,1.4,3,8.1-3.1,10.3-2.1,13,7.4,19.3a34.15,34.15,0,0,1,8,7.4c3.7,5.4,9.6,7.9,22.8,9.7,6.1.8,12.5,2.1,14,2.9s4.4,3.9,6.4,6.8a142.33,142.33,0,0,0,10.7,13.1c8.4,9.2,11.8,15.4,13,24.1,1.1,7.7,2.4,9.8,9.3,15.1,6.6,5.1,7.2,7.8,2.7,12.9-3,3.5-3.1,3.8-2.4,10a64.26,64.26,0,0,1-1,16.2c-2.3,13.3-1.7,19.8,3,30.9,3.2,7.6,3.9,10.4,4.3,18.1.4,8.2.1,9.9-2.6,17.5-1.6,4.6-4.2,11.1-5.6,14.4-2.5,5.8-3.3,11.6-2,14.9.3.8,2.8,2.9,5.5,4.7,5.8,3.7,8.3,7.8,7.4,12-.4,1.6-2.9,6.4-5.7,10.6-6.7,10.2-9,16.3-9,23.9-.1,8.2,3,14.6,11.5,24.9,4.2,4.9,6.9,9.3,7.3,11.3,1,5-1.7,9.7-7.2,13-14.5,8.5-16.8,11-18.1,20.2-.7,4.9-1.1,5.4-4.3,6.6-9.1,3.3-19.4,1-30.7-6.7-5.7-3.9-12.4-4.9-17.1-2.5a17.55,17.55,0,0,1-7,1.6c-4.8,0-7.3-2.5-10.2-10.3-1.2-3.1-3-6.2-4-6.7-5.4-2.9-10,.6-13.1,9.8-1.2,3.7-2.6,7.3-3.2,7.9-1.4,1.8-4.9,1.6-10.7-.7-7.5-3-10.4-2.7-13.5,1.4-4.4,5.7-7,6.2-17.2,3.2-12.4-3.7-12.7-4.2-6.6-10.9,5.8-6.5,7.8-11.9,9.8-26.7.8-5.8,1.7-11.9,2.1-13.7,1.3-6.5-8.3-11.7-17.8-9.9-1.8.4-7,3.1-11.6,6.1-11.8,7.7-18.7,8.4-30.8,3-7.1-3.1-9.6-3.1-15,0-5.6,3.3-10,9.8-12,17.7-2.1,8.8-3.4,11.7-5.5,12.8-1,.6-5.8,1-10.8,1s-10.2.5-11.6,1.2c-1.7.7-3.8,3.4-5.5,6.9-3.8,7.5-8.3,11-17.3,13.7-6.2,1.8-8.5,3.1-14.1,8.2-6.2,5.6-7,6-11.5,6-4.3,0-5.6-.5-10.5-4.6-6.8-5.5-7.1-7.7-2.1-15.2a22.22,22.22,0,0,1,8.5-7.7c5.2-2.7,7-4.9,7-8.8,0-2.7-2-4.7-6.5-6.8s-6.5-7-6.5-16c0-9.9-2-12.9-8.5-12.9-8,0-8.7-5-1.3-9,10.1-5.5,10.8-7.8,4.8-16.6-5.8-8.6-5.3-10.6,3.2-11.8,3-.5,7.6-2.5,13-5.8,9.2-5.6,33.2-17,39.4-18.7a41.42,41.42,0,0,1,9.2-1.1c4.3,0,5.8-.5,7.7-2.5,2.1-2,2.5-3.4,2.5-8.8,0-3.4.4-6.7.9-7.3s2.1-4.2,3.5-8.2a103,103,0,0,1,5.1-12,20,20,0,0,0,2.5-9.7c0-3,.6-6,1.6-7.3,2.1-3,.8-4.6-5.3-6.3-4.9-1.3-11.3-6.2-11.3-8.5,0-.8,1.2-3.3,2.7-5.5,3.1-4.7,3.5-9.9,1-12.7a26.66,26.66,0,0,0-6.1-4c-7.3-3.7-7.5-4.3-3.3-12.1a70.57,70.57,0,0,0,5.3-13.1c2.1-8.4,3.8-10.8,8.1-11.6,7.8-1.5,13.6,2.2,24.9,15.7,7.9,9.5,9.8,10,14.5,3.6,4.9-6.6,11.9-21.6,11.9-25.5,0-2.4-.9-4.5-3.1-6.9-3.8-4.4-3.6-7.7.4-8.1a9.31,9.31,0,0,1,5.2,1.2c4.7,3.1,7,2.1,13.6-5.6,7.1-8.2,8.9-11.9,8.9-18.3s-1.2-8.1-8-11.5c-4.3-2.2-6-3.6-6-5,0-1.6.7-2,3.1-2,7.1,0,9.2-3.3,7.8-12-1.9-12.2,3.7-33.8,10.7-40.8,3-3,3.6-3.2,10.4-3.2,5.4,0,9.8.8,16.8,3,13.1,4.2,15.9,3.5,20.6-5.8C732.4,22.25,734.1,21.35,733.3,26.25Z"/><path d="M356.2,66c-1.8,1.1-3.5,2.6-3.8,3.4s-2.3,2.6-4.4,4.1c-4.3,2.9-8.4,3.1-14.7.4-2.5-1-3.4-1-4.7,0s-1.2,1.8,1,5.8c4.1,7.8,2.9,12.3-3.2,12.3-2.7,0-3.8-.8-6.5-4.5-1.8-2.5-3.6-4.5-4.1-4.5s-2.4-2.5-4.4-5.6-4.2-5.8-5-6.1c-2.7-1-5.4,2.6-5.4,7.4,0,3.6-.6,5-2.9,7.4-4.5,4.4-8.1,4-12.7-1.6-4.2-5.2-6.4-5.6-9.4-1.8-4.3,5.5-9.4,6.5-18.5,3.8-5.7-1.8-9.1-1.3-9.9,1.3-.3.9-1.9,9.6-3.5,19.2-3.8,22.8-8.9,45.9-15.1,69.5-6.8,25.7-16,61.6-16,62.6,0,1.4,1.6,1,3.9-.9,1.2-.9,3.4-5.3,4.9-9.7,2.6-7.6,2.9-8,5.9-8.3,5.1-.5,5.6,1.5,5,21.7-.5,19.3-2.2,28.2-7.4,38.8-4.6,9.3-8.5,9.7-11.2,1.2-1.3-3.8-1.2-5.5.3-14.7,1-5.7,1.6-10.5,1.3-10.8-.9-1-5.6,1.6-6.8,3.8-2.3,4.3-7.6,30.1-6.8,33.1.4,1.5,5.2,7.6,10.7,13.5s12.5,13.7,15.6,17.4,6.6,7.2,7.6,7.8c5,2.6,9.3-.7,8.3-6.4-.7-4.4,1.4-11.4,4.2-14.2,3.6-3.6,9.4-3.3,14,.7s6,9.3,4.6,16c-1.6,7.3-1.4,11.4.7,13.2,2.6,2.4,4.4,2.1,10-1.3,2.6-1.7,6.1-3.2,7.6-3.3,2.6-.2,3.2.6,7.8,9.2,4.8,9.1,5,9.7,4.3,15-.3,3.1-.6,9.2-.5,13.7.2,9.3-.5,10.4-7.5,11.2-3.5.3-4.5.9-4.5,2.3,0,2.4.9,2.8,8.2,3.8a51.83,51.83,0,0,1,7.8,1.4c2.9,1.3,4.5-1,4.6-6.4.1-5.9,1.6-7.6,7.7-8.6,4.4-.7,6.7-3.4,6.7-8.1,0-4.2,1.8-4.8,7.5-2.7,6.4,2.5,7.1,1.6,7.8-10.2.7-12,2.8-18.5,7.8-25.2,2.2-2.8,3.9-5.8,3.9-6.5a36.14,36.14,0,0,0-2.6-7c-3.7-8.2-2.6-10.5,7.7-15.7,4.7-2.3,9.3-3.9,11.4-3.9,1.9,0,3.5-.4,3.5-.9s-1.6-3.1-3.5-5.7c-5.6-7.9-6.5-10-7.7-18.4-1.5-9.8-.7-11.9,6.2-16.1,2.7-1.7,5-3.4,5-3.9s-2-1.6-4.6-2.6c-6.3-2.4-7.5-4.5-6.8-11.9a24.23,24.23,0,0,0-5.5-18.5c-4.3-5.3-6.1-9.5-6.1-13.9,0-3.9.1-4,6.4-7.1,7.9-3.7,13-9.3,18.1-19.6,5-10.1,5.5-14.6,2.2-21.8l-2.6-5.6,2.1-2c3.7-3.4,8-3.6,13.7-.4l5,2.8,2.8-2c4.8-3.5,6.7-3.7,13.5-.9,9.8,4,13.2,2,9.9-5.7-2.3-5.5-6.5-29.1-5.6-31.9a39.34,39.34,0,0,1,5-7.3c5-6.2,6.5-8.8,6.5-11.3-.1-1.4-.6-1.2-2.5,1.2-5.5,6.9-6.3,7.5-10.2,7.5-4.9-.1-10.6-2.7-16.8-7.9a37.22,37.22,0,0,0-9.6-5.6c-6.8-2.3-7.3-3.2-6.4-11.9l.7-7.5-6.1-3C363,63.45,360.7,63.25,356.2,66Zm13.3,1.9,5,2.7-.3,7.4c-.3,6.8-.1,7.7,2,9.6a14.29,14.29,0,0,0,5.3,2.8c1.7.4,5.7,2.8,8.9,5.3,11.2,8.6,18.9,10.4,24.5,5.8,1.6-1.4,3.3-3.5,3.6-4.6s.9-1.8,1.2-1.6c.8.9-1.8,4.9-6.3,10-2.3,2.6-4.5,6-4.9,7.5-.7,3.6,3,26,5.5,32.2,1.7,4.3,1.7,5,.4,6.1s-2.2,1-4.7,0c-10.4-4.1-11.3-4.3-14.8-2.7a36.36,36.36,0,0,0-5.1,2.8c-1.3,1-2.3.7-5.5-1.5-4.4-3-8-3.4-12.3-1.2-4.7,2.4-5.2,4.4-2.4,10,3.5,7.3,3.1,10.9-2.2,21.5s-10.4,16.2-18,19.6c-8.9,3.9-9.1,9-.9,21,5.3,7.7,6.9,13,6,19.9-.5,4.3-.3,5.5,1.5,7.8a13.59,13.59,0,0,0,5.5,3.8c1.9.7,3.5,1.6,3.5,2s-1.8,1.8-4,3.3c-6.2,4.1-7.4,6.6-6.7,13.9.9,9.1,2.3,13,6.7,18.9,2.2,2.9,4,5.6,4,6s-1.2,1.1-2.7,1.4c-4.9,1.3-16.8,7.2-18.8,9.4-2.6,2.8-2.4,7.8.5,14l2.4,5-2.2,2.8c-7,8.8-10.1,18.5-10.2,31.4,0,3.7-.5,7-1,7.3s-3.3-.1-6-1.1c-5.8-2.1-8-1-8,3.8s-1.5,6.5-6.4,7.2c-5.7.9-8.1,3.5-7.9,8.9.1,6-.7,6.7-6.9,5.1a40.18,40.18,0,0,0-8.5-1.4c-4.9,0-4.3-2.6.8-3.3,7.3-1,9.4-4.7,7.7-13.7-.6-3.4-.5-5.6.2-7.1,2.4-4.5,1.4-10.3-3.5-19.5-2.6-4.9-5.1-9.5-5.8-10.2-1.4-1.8-5-.8-11.1,2.9-8.7,5.3-11.9,2.2-9.7-9.2,2.5-12.5-3.1-21.9-13.1-21.9-7.3,0-11.8,7-11.8,18.4,0,3.6-.4,4.6-2,5.1-3.5,1.1-5.6-.4-12.1-8.2-3.4-4.1-10.7-12.3-16.2-18l-9.9-10.5.5-5.6c.3-3.1,1.7-10.7,3.1-16.7,2.1-8.7,3.1-11.5,5.2-13.3,1.5-1.3,2.8-2.1,3-1.9s-.3,4.4-1.2,9.3c-2.6,15.1.4,24.2,7.5,21.9,2.6-.8,6.5-8.5,9.7-19,2.3-7.8,2.7-11.3,3.1-26.2.3-9.4.3-18.3-.1-19.7a7.9,7.9,0,0,0-3.1-4.2c-3.9-2.6-6.8,0-9.5,8.3-1.2,3.7-3.3,7.9-4.7,9.3-2.2,2.2-2.4,2.3-1.9.5.3-1.1,1.9-7.7,3.5-14.6s4.6-18.5,6.6-25.5c9.3-33,18.1-72.2,22-98.1,1-6.6,2.3-11.7,3.1-12.4,1.1-.9,2.9-.8,8,.6,9.1,2.5,14,1.7,18-2.9,1.7-2,3.6-3.6,4.1-3.6s2.8,2,5.1,4.5c4.4,4.9,7.2,5.6,12.1,3.1,3.2-1.7,5.1-5.4,5.1-10.1,0-3.4,2.4-6.9,4.3-6.2.6.2,2,1.9,3.1,3.9a118.26,118.26,0,0,0,8,10.2c4.9,5.5,6.5,6.6,9,6.6,3.3-.1,6-1.6,6.8-4,.7-2.1-1.1-8-3.4-11.3-1.8-2.5-1.8-2.8-.3-3.3.9-.4,3.2.1,5.1,1,4,1.9,8.6,2.1,11.7.5a71.82,71.82,0,0,0,7.4-6C359.8,64.05,362.2,63.75,369.5,67.85Z"/><path d="M200.1,303.35c-.6.7-5,16.1-9.7,34.2-12.4,47.8-18.1,66.5-27.3,89.7-1.7,4.3-3.1,8.7-3.1,9.9,0,1.4,2.2,4.3,5.9,7.8,9.6,8.9,9.9,12.9,3,34.6-4.5,14-4.6,15.5-1.9,19.9,2.3,3.7,5.3,5.1,12.5,5.9,2.8.3,6.4.8,8.1,1.1,2.6.6,3.2.3,4.2-1.9,2.4-5.2,5.2-6,16.5-4.7,22.4,2.7,33.1,6.5,36.8,13,1.3,2.3,3,4.1,4,4.1,1.8,0,5.9-4.4,5.9-6.4,0-.7,1.4-2.5,3.1-4.2,4-3.8,11.6-4.2,15.1-.6,2.1,2,2.3,3.4,2.8,14.9.4,8.9.9,12.8,1.8,13.1.6.2,1.2-.4,1.2-1.5,0-3.8,4-7.8,11.7-11.9,5.1-2.7,8.6-5.2,10.1-7.5,2.7-4,6.2-5.8,11.8-5.9,5.1,0,6.1,1.1,11.3,12,4.2,8.8,6.7,19.9,5.5,24.5-.3,1.4-.2,2.5.4,2.5,2.2,0,13.4-11.9,16.5-17.5,4-7.2,5.9-7.9,8.8-3.1,2.2,3.8,5.5,4.8,6.6,2,.3-.8-.4-3.5-1.6-6-5-9.9-4.7-15.7,1.3-21.6,8.1-8.1,12.3-11.8,13.2-11.8a14.32,14.32,0,0,1,4.2,1.6c4.4,2.1,6.6,1.1,11.3-5.2,2.2-3,4.6-5.4,5.3-5.4,2.1,0,9.9,4.7,12.6,7.5,2.4,2.5,2.4,2.5.7,7.8-3.2,10-2,14.9,6.3,27.6,4.5,6.8,6,10,6.2,13.3.4,5.2,3.1,6.1,3.6,1.2.3-2.9.7-3.2,4.4-3.7a17.8,17.8,0,0,0,7.7-3.5c5.5-4.4,6.6-4.8,24-9.1,19.4-4.7,21.5-5.8,20.9-10.9-.8-6.6.5-8.5,9-12.5,10.5-4.9,11.5-5.1,17.8-3.1,7,2.2,8.3,1.2,6.4-4.7-1.4-4.1-1.4-4.2,1.5-6.5,4.2-3.4,6.2-3.5,9.4-.8,1.6,1.3,3.4,2.4,4,2.4,1.4,0,9.1-12,9.1-14.3,0-1-4.5-6.2-10-11.6s-10.4-11.1-11-12.7c-1.4-3.6-.5-8.4,2.6-14.6a23.5,23.5,0,0,0,2.4-8.4c0-3.6-1.7-5.8-9.3-12.1-3.6-2.9-3.6-8,.2-15.8,3.3-6.9,6.9-10.6,12.9-13.3l4.3-1.9-4.9-3.1a56.76,56.76,0,0,1-7.1-5.6c-2.2-2.3-2.3-2.8-1.1-7.5,1.5-6.2.5-12.8-2-14.1a10.64,10.64,0,0,0-4.5-1c-3.7,0-6.2-1.6-8-5-3.5-6.8-.9-11.6,7.8-14.6,6.6-2.2,6.6-3.9.1-12.5-2.5-3.2-5.2-5.9-6.1-5.9s-8.8,7.1-17.6,15.8c-20,19.5-21.3,20.5-44.7,31.5-8.5,4-13.3,7-18.4,11.6-8.2,7.3-12.8,9-18.9,7.2A59.52,59.52,0,0,0,394,375c-6.1.1-8.7.6-13.9,3-3.5,1.7-7.1,3-8.1,3s-4.8-2.7-8.4-6c-7.8-7-11.3-9-16-9-1.9,0-3.8-.5-4.1-1-1-1.7-2.3-1.1-2.9,1.3a14.53,14.53,0,0,1-2.7,5c-1.7,2.3-2.8,2.7-7,2.7-4.6,0-5,.2-7.2,3.8-1.9,2.9-3.4,4-7.1,5-5.1,1.3-6.6,3.5-6.6,9.7a9.92,9.92,0,0,1-1.9,5.6c-1.7,2.1-2.2,2.2-5.7,1.1a69.36,69.36,0,0,0-9.4-1.7c-8.9-1-9.9-1.4-11.5-4.5-1.8-3.5-2-10.6-.2-11.7.6-.4,3.5-.8,6.2-.8h5l.1-5.5c.1-3,.4-8.9.5-13l.4-7.5-4.5-5.7c-2.5-3.1-5.1-5.7-5.8-5.7s-2.7.8-4.3,2c-3.6,2.6-9.8,3.5-12.7,2-3.5-1.9-4.6-7.7-3.3-16.8,1.2-8.2.9-10.5-1.7-13.6-1.8-2.1-7.5-2.3-9.2-.2-.6.8-1.8,5.5-2.6,10.5a68.89,68.89,0,0,1-1.9,10c-1,1.5-9,1.2-13.5-.6-2.9-1.2-4.8-3-7.1-6.7-3.2-5.2-22.2-26.2-24.5-27.1A2.2,2.2,0,0,0,200.1,303.35Zm13,11.3c5.8,6,11.6,12.8,13,15.3,2.8,5.3,9.2,9,15.9,9.3,5.8.2,7.5-2.1,8.4-11.4s2.2-11.9,5.5-11.9c5.9,0,7.5,3.6,6,13.1-2.7,17.4,3.8,24.2,16.6,17.4l4.7-2.6,3.4,3.8c5.9,6.6,6.5,8.3,5.5,16.5a86.43,86.43,0,0,0-.7,11.3l.1,4h-5.3c-6.5.1-7.4,1.2-6.9,8.4.5,7.4,3.1,9.6,12.3,10.5a85.93,85.93,0,0,1,10.8,1.8c3.6,1.1,4,1,6.2-1.6a9.85,9.85,0,0,0,2.4-5.9c0-4.9,2.1-8,6.1-9.2,4.4-1.2,6.8-3.1,8-6.2.7-1.9,1.6-2.3,5.3-2.3,6.1,0,7.4-.7,9.6-4.9,1.7-3.4,2.1-3.7,5.7-3.4,7,.7,8.3,1.3,15,7.4,10.2,9.3,10.5,9.4,18.8,5.3,5.9-2.9,7.9-3.4,14.2-3.4a53.3,53.3,0,0,1,11.7,1.2c6.6,1.7,11.3-.1,20-7.7,7.5-6.5,12.5-9.4,25.7-15,12.1-5.1,20.4-11.3,36-26.8,16.4-16.3,18.2-17.6,20.3-15,9.2,11.1,9.4,12.6,2.1,15.4-8.1,3.1-10.4,8.1-7,15.4,1.7,3.5,5,5.5,9.3,5.5a8.62,8.62,0,0,1,3.8.8c1.8,1.2,2.5,8.8,1.2,13.6-1.4,5.5-.1,8,6.6,12.2,2.5,1.6,4.6,3.2,4.6,3.5s-1,.9-2.3,1.3c-6.1,1.5-15.8,16.1-16,24.1-.1,3,.7,4.2,6.1,9.2,7.4,7,7.7,8.9,3.2,18.5-5.1,10.7-4.1,13.5,9.4,26.8,5.3,5.2,9.6,10.2,9.6,11s-1.2,3.2-2.6,5.1a36.59,36.59,0,0,0-3.5,5.6c-1.1,2.9-1.7,2.9-5.8-.1-2.6-2-3.8-2.3-5.7-1.6-7.1,2.7-8.8,5.9-6.2,11.5,1.6,3.6.4,4.1-5.2,2.1a15.55,15.55,0,0,0-8.1-1.1c-4.3,1-17.5,7.3-19.1,9.2-.7.9-1.2,3.6-1.1,6.3.2,3.6-.3,5.2-1.6,6.5-1.1.9-9.4,3.5-18.5,5.7-14.2,3.5-17.5,4.6-22.7,8.1-3.3,2.2-7.7,4.3-9.7,4.6-3.3.6-3.7,1-4,3.9-.5,4.8-2.2,3.9-2.2-1.1,0-3.6-1-5.9-5.9-13.3-8.6-13.1-9.6-17.1-6.4-27,1.5-4.9,1.5-5.5,0-7.7-1.8-2.7-12-8.7-14.8-8.7-1.1,0-3.3,2.3-5.4,5.5-4.2,6.2-6.2,7.2-10.4,5.1a14,14,0,0,0-4.4-1.6c-2.6,0-17.3,15.2-18.6,19.2s-.4,9.4,3,16A20.26,20.26,0,0,1,361,527c0,2.1-2.6.9-5.3-2.5-4.1-5.1-6-4.6-9.9,2.7a53.57,53.57,0,0,1-8.8,11.7l-5.4,5.4-1.3-8a65.12,65.12,0,0,0-8.5-24c-3.3-6-5.4-6.9-12.6-5.9-4,.5-5.4,1.4-9.2,5.6a40.44,40.44,0,0,1-10.5,7.8c-6.4,3.2-8.3,4.9-10.8,9.7-1.6,2.9-1.6,2.6-1.7-8.8,0-6.5-.5-12.7-1-13.8-1.4-2.5-6.2-4.9-10-4.9-5,0-8.8,2.6-12.1,8.5-1.7,3-3.6,5.5-4.3,5.5s-2.4-1.7-3.7-3.8c-4.1-6.4-14.2-10.1-36.4-13.3-12.1-1.7-12.5-1.7-16.7,3-3.6,4.1-3.8,4.2-7.5,3.2a36,36,0,0,0-8.1-1.1c-3.7,0-5-.6-7.8-3.4-4.3-4.3-4.3-6,.1-19.2,7.4-22.6,7.1-27.1-2.7-36.8-7.1-7-7.1-5.8.2-24.6,6.9-17.9,13.3-39.5,23.5-78.9,8.7-33.4,9.8-37.1,11.3-37.1C202.3,304,207.4,308.75,213.1,314.65Z"/><path d="M683.8,344.15c-2.1.4-5.5,1.1-7.5,1.5-3.3.7-4,1.3-5.1,4.8-1.8,5.5-2.6,6.1-5.7,4.1-2.6-1.7-2.9-1.7-7.5.3-6.6,2.8-10.6,2.6-21.6-1.1-7.7-2.6-9.8-3-11.8-2-4.1,1.8-7.7,7.7-9.7,15.8-2.2,8.7-5.2,13.4-10.2,15.8-3.8,1.8-10.5,2.1-15.3.7-3.8-1.1-4.2-.9-8.2,5.6-6,9.4-12.7,14.3-21.5,15.8-2.7.4-5.5,2.2-9.7,6-7.2,6.6-10.7,8.5-15.9,8.5-3.7,0-4.4.4-6.8,4.2-2.4,3.6-2.8,5.1-2.8,11.8,0,10,3,16.1,10,20.7,8.6,5.5,9.5,6.6,9.5,12.3a22.28,22.28,0,0,1-1.6,8.3c-3.8,7.3-11.2,13.9-15.4,13.6-4.5-.2-4.8,0-5.5,5-.4,2.7-1.3,5.8-2,6.7-1.2,1.7-1.6,1.6-6.6-1.6-6.8-4.3-11.2-4.4-19.4-.3-5.6,2.7-6,3.1-6,6.3a29.12,29.12,0,0,0,.8,6.2c1,3.9-1.9,6.5-8,7.3-6.9.9-9.3,2.2-10.6,5.5s-2.3,3.6-6.1,1.9c-2.2-1-3.1-.8-6.3,1.3a86.2,86.2,0,0,1-13.5,6.2,118.22,118.22,0,0,0-14.3,6.7c-2.5,1.6-5.7,2.9-7,2.9-3.3,0-7,5.1-9.9,13.6-2.2,6.7-2.4,7-11.7,13.7-14.6,10.7-17.9,12.6-25.1,14.8-5,1.5-7.2,2.7-8.8,4.9-2.9,4-4.7,15.1-3.1,18.6,1,2.3,1.6,2.5,6.3,2.2l5.2-.3,3,4.9c3.4,5.4,3.3,3.7,2.6,32.6-.4,15.8.4,17.7,9.2,21.8,17.3,8.1,33.1,10.9,39.2,6.8,3-1.9,3.2-3.5,1-10-1.5-4.5-1.5-4.9.5-10.4,1.2-3.1,2.6-10.4,3.2-16.1,1-10.7,2.6-15.4,5.4-16.5,3.2-1.2,8.7-.6,13.4,1.5,4.5,1.9,5.1,1.9,8.6.5,5-2.1,6.2-2,8.1.9,1.1,1.7,1.8,6.5,2.5,16.6.5,7.8,1.2,14.6,1.5,15s2.9.6,5.7.3c4.9-.6,5.6-.4,11.4,3.6,7.5,5,11.7,9.6,20.8,22.9,7.6,11.1,8.5,15.3,5,22l-1.7,3.4,4.3-2.5c2.6-1.5,6.1-5,8.5-8.4a47.48,47.48,0,0,1,9.5-9.5c4.5-3.1,5.9-4.8,9.4-12,3-6.2,4.8-8.9,7.3-10.2,4.2-2.4,9.7-2.4,13.1,0,4.6,3.5,8.9,5.3,10.8,4.6,1-.3,4.7-3.4,8.3-6.8,6.3-6,6.8-6.3,14-7.5,10.8-1.8,26.7-.7,42,3,23.7,5.6,33.3,5.1,48.7-2.7l9.2-4.7,11.3,2.9c14.2,3.7,25.6,4,33.6.8,4.2-1.7,5.9-1.9,8.5-1.2a42.86,42.86,0,0,0,10.3,1.1c9.3.2,12.5-1.7,15.7-9.1,5.8-13.5,7.8-24.1,7.8-41.1-.1-15.4.6-17.2,6.9-19.1,8.2-2.5,15.2-11.1,17.8-21.9.6-2.5,1.6-8.3,2.2-13a262.2,262.2,0,0,1,8-36.5c3.7-11.1,2.8-14.4-6.3-24.3-4.5-4.9-7-8.7-8.5-12.9-3-8.1-6.3-11.1-14-12.4-10.4-1.9-15.5-6.6-17.1-15.9-3.3-18.9-3.3-19.4-2.1-24,1.8-6.9,6.2-12.5,11.7-15,7.5-3.4,7.8-3.6,8.1-5.7q.3-2.1-3.6-5.1c-6.2-5-8.2-5.4-22.7-4.6l-13.1.7-2.2-2.8a15.56,15.56,0,0,1-2.8-5.4c-1.1-5.5-2.3-7.2-4.6-6.9-1.5.2-2.6,1.3-3.2,3.3-3.2,10.8-6.2,14.5-11.6,14.5a30.3,30.3,0,0,1-8-1.5c-7.8-2.8-12.2-1.4-15.7,5-1,1.7-1.6,1.8-9.9.6-13.5-1.9-20.7-5.7-23.5-12.3-1.2-3-1.1-3.2,4-7.6,7.6-6.5,9.6-11.4,11.7-28.2a50.74,50.74,0,0,1,1.5-7.9c1.1-2.7.4-5.7-1.4-6.3A15.78,15.78,0,0,0,683.8,344.15Zm5.4,5.9a121.49,121.49,0,0,0-2.6,13.7c-2.1,13.9-4.6,18.4-12.8,23.5-4.3,2.7-3.7,6.2,2,11.6,5.2,5.1,8.8,6.5,20.9,8.3l8.2,1.2,3.9-4.2c4.4-4.8,5.9-5,14.6-2.3,6.8,2.1,9.7,1.8,13-1.6,2.6-2.6,5.6-8.2,5.6-10.6,0-5.1,4.5-6.7,5.6-2,2.8,12.7,4.6,13.6,23.9,11.9,8.2-.8,9.5-.7,13,1.2,10.2,5.4,10.9,8.3,2.8,11.4-9.1,3.3-16.2,14.7-15,23.6.3,2,1,7.5,1.6,12.2,1.9,14.1,6.8,19.6,19.5,21.9,7.5,1.4,9.6,3.4,13,12.1a42.9,42.9,0,0,0,8.5,13.2,60,60,0,0,1,6.9,8.5c1.7,3.2,1.5,8.6-.7,14a48.54,48.54,0,0,0-2.5,9.6,66.89,66.89,0,0,1-2.1,8.8c-.8,2.1-2.4,10.3-3.5,18.1-3.4,22.5-6.8,29-17.6,33.9-9.1,4.1-9.4,4.8-9.4,21.1,0,7.5-.5,16.1-1.1,19-1.8,9.2-7,23.8-9.4,26.6-2.1,2.4-3.1,2.7-10.2,3a55,55,0,0,1-11.7-.6c-3.2-.9-4.7-.7-8.9,1-7.7,3.1-19.3,2.9-33-.6-11.9-3.1-13.4-3-20.4,1.5-11.9,7.5-26.9,8.4-49.3,2.8-12.1-3-15-3.3-28-3.3-18.9-.1-21.8.8-29.1,8.6-6.5,7.1-8.9,7.6-15.2,3.1-5.3-3.8-8.6-4.6-12.8-3.2-5.1,1.8-7.8,4.7-11.4,12.5-2,4.5-4.4,7.9-6.5,9.5-3.3,2.4-9,8.1-16.2,16.2-4,4.6-5.4,4.6-3.7,0,1.6-4.8-.3-9.7-7.7-20.3-7.6-10.9-12.8-16.6-19.9-21.8-4.4-3.3-5.6-3.7-11-3.7h-6l-.8-12c-1-15.7-2.4-20.7-6-21.9-2-.7-3.6-.6-6.3.7-3.4,1.7-3.7,1.6-8.1-.3-8.3-3.7-16.2-2.1-18.4,3.7a80.16,80.16,0,0,0-1.9,12.2,102.27,102.27,0,0,1-3.2,16.3c-2,6.4-2.1,6.8-.5,11a22.55,22.55,0,0,1,1.7,6c0,5-14.1,5.5-27,1-11.9-4.1-17.7-7-20.1-10.1-2.1-2.5-2.1-3.3-1.5-21.5.6-21,.1-24.3-4.7-30.1-2.8-3.5-3.3-3.6-7.2-3.1-5.7.9-6.9-.7-6-7.6,1.4-10.6,3.8-13.7,12.7-16.2,5.1-1.5,9.5-4.1,25.3-15.2,7.8-5.4,9.4-7.2,11-12.6a49.21,49.21,0,0,1,4-9.4c2.2-3.8,3-4.4,5.9-4.4a7,7,0,0,0,4.7-1.6c1.7-2.1,7.2-4.8,17-8.4a83.15,83.15,0,0,0,12.3-5.6c3.2-2.2,4.3-2.4,5.8-1.5,3.3,2.1,5.7,1.3,7.2-2.3s1.9-3.7,11.1-5.1c5.7-.9,7.9-2.8,7.7-6.8-.1-1.7-.3-4.8-.5-6.7-.2-3,.2-3.7,3.8-5.7a40.93,40.93,0,0,1,7.9-3.4c3.7-1,4.5-.8,11,2.6,7,3.7,7,3.7,8.7,1.6a15.82,15.82,0,0,0,2.3-6.6c.7-4.5.7-4.5,4.7-4.5,3.5,0,4.7-.7,9.3-5.3,6.1-6.2,8.8-11.3,8.8-17.2.1-5.1-2.1-9-6.4-11.3-6-3.3-9.7-7.3-11.8-12.8-2.3-6.2-2.5-10.1-.9-15.8,1.7-6.3,3.8-8.5,8.1-8.6,5.6,0,8.2-1.4,15.2-7.9,4.7-4.4,7.4-6.1,10.3-6.6,9.3-1.6,15.5-5.9,21.3-14.9l4.3-6.6,6.3.6c8.4.9,12.8-.1,17-3.8,4.4-3.9,5.3-5.6,7.5-14.5,2-8,5.7-13.8,9.3-14.7,1.4-.3,6.1.6,11.5,2.4,10.5,3.5,15,3.7,20.9,1,4.1-1.8,4.4-1.9,7.8-.2s3.6,1.6,5-.3a7.77,7.77,0,0,0,1.4-4.1c0-3,3.5-5.4,8-5.5a16.6,16.6,0,0,0,5.5-.9C688.7,343.65,690.4,346.05,689.2,350.05Z"/><path d="M390.8,491.65c-5,6.6-6.9,7.3-10.8,4.5l-2.7-2.1-3.9,2.6c-6.3,4.2-9.3,7.4-11,11.9s-1.3,6.3,3.2,11.7c2.8,3.3,3,6.3.9,11.2-1.9,4.6-3.9,5.2-8.5,2.6-5.1-2.9-7.6-1.8-13.4,5.7-6.6,8.6-10.9,10.9-19.6,10.3a10.56,10.56,0,0,1-4-1.1c-1.3-.8-1.3-1.3.3-3.9a18.38,18.38,0,0,0,1.7-8.3c0-6.1-2.2-16.4-3.9-18.1s-10.7-1.1-16.1.8c-7.1,2.5-14.6,8.2-18.6,14.2s-5.2,6.8-8.8,5.9c-3.4-.8-4-3.3-4-16.7-.1-12.8-.9-14.9-5.7-14.9-2.3,0-3.5.9-5.7,4.1-5.8,8.6-8.2,10.9-11.6,10.9s-5.4-1.6-8-6.7c-2.8-5.5-6.7-7.4-18.4-8.9-5.9-.8-12.8-2.1-15.4-3-6-2-8.2-1.2-11.5,3.7-3.1,4.7-6.5,5.9-10.6,3.6-1.8-1.1-5.1-1.7-8.7-1.7-5.2,0-6.4-.4-9.5-3.2s-3.8-2.9-5-1.7c-.8.8-4.3,9.3-7.8,18.9s-11.1,29.2-16.7,43.5c-16,40.6-19.7,51-30.3,84.5-7.7,24.2-8.3,27.1-6.7,35.4,1.1,6,1,6.6-1.3,11.3-1.4,2.7-5.8,8.5-9.8,12.9s-8.2,10.2-9.5,12.9c-2,4.4-2.9,5.2-7.2,6.7-6.4,2.3-11,6.9-16.9,17-9.3,16-37,39.4-49.7,42L0,791.35l2.1,2.2c1.1,1.2,2.7,4.8,3.6,8,2.7,10.6,8,16.4,15.1,16.4,2.6,0,4.5-1.1,8.9-5.2,4.7-4.5,6-5.2,9.2-5.2a15.66,15.66,0,0,1,6.2,1.6,16.53,16.53,0,0,0,5.3,2.2A16.77,16.77,0,0,1,61,820c2.4,4.7,2.4,6.2.6,13.4q-2.55,9.75,2.4,12.3c4.9,2.4,11.7-2.8,16.1-12.4,7.1-15.7,26.2-28.1,32.5-21.2,3.3,3.7,7,5.1,9.9,3.7,3.4-1.6,4.1-5,2.1-11.3a38.5,38.5,0,0,1-1.6-9.7c0-9.2,5.3-18.8,10.3-18.8,4.2,0,7.6-3.9,12.7-14.4,5.4-11.4,12.3-19.9,17.3-21.4,4.3-1.3,23.7-2.7,36.4-2.5,7.8.1,10.3-.2,10.7-1.3.3-.7-.4-3.9-1.4-7-3.6-10.4-2.3-13.1,5.9-12,4.6.6,5.3.4,8.5-2.5,4.7-4.1,5.9-8.6,4.5-16.8-1.6-8.9-.7-20.6,1.9-25.7a53.6,53.6,0,0,1,6.7-9.2c3-3.3,4.8-6.4,5.2-8.7.5-3.1.2-3.9-3.5-7.2-5.4-5-8.4-12-9-20.8-.3-6.1-.1-7.4,2-10.4a20.67,20.67,0,0,1,6.8-5.8c3.8-2.1,5.5-2.4,11-2a91.27,91.27,0,0,1,9.6,1.2c4.4,1,10-2.2,19.4-11,7.8-7.2,17-12.2,20.3-10.9,1.8.6,4.2,8.6,6.1,20,1.7,9.8,4.2,18,5.8,19,.5.3,2.2-.5,3.6-1.9,4.2-3.9,6.6-4.7,13.8-4.7,6.1,0,7.1-.3,11.6-3.6,4.3-3.2,4.9-4.1,4.4-6.3-2.4-10.3-1.7-11.9,3.9-9.5,7.7,3.2,14.5-1.2,14.5-9.2,0-1.7.6-3.6,1.3-4.2s7.8-4.4,15.9-8.5c17.2-8.8,22.2-12.2,26-17.9,3-4.5,5.8-12.5,5.8-16.8a6.84,6.84,0,0,1,1.9-4.4c4.3-3.9,3.6-8.4-2.8-16.9-7.8-10.2-9.9-19.1-6.6-27,1.4-3.4,1.4-3.7-1.1-6.6C398.5,484.35,395.9,485,390.8,491.65Zm10.3-2.8c2.2,1.8,2.3,2.1,1.1,6.5-2.7,10.3-.9,17.9,6.7,27.6,3,3.7,6.1,9.3,6.1,10.8a16.52,16.52,0,0,1-2.4,4.4,24,24,0,0,0-3.1,8.4c-1.1,7.7-4.3,14.1-9.3,18.5-4.6,4-23.1,14.4-31.2,17.4-5.5,2.1-8,4.8-8,8.6,0,4-1.8,7.5-4.7,8.8-3.3,1.5-4.9,1.4-9-.6-3.4-1.6-3.6-1.6-5,.3s-1.3,3.3.2,10.4c.5,2.1-.1,3-4.4,5.9s-5.6,3.3-9.1,2.8a19.86,19.86,0,0,0-15.1,4.3l-3.6,2.8-1.6-4.6a90.78,90.78,0,0,1-3.2-13.7c-2.2-12.8-4.2-19.3-6.4-20.4-4-2.2-12.1,1.9-22,11.1-4.1,3.8-9.2,7.8-11.4,9-4,2-5.2,2-13.2-.1-6.9-1.7-15.4,1-20.9,6.8-6.4,6.7-4.2,22.7,4.5,32.6,2.7,3.1,4.9,6.3,4.9,7.1,0,2.4-1.9,5.5-6.2,10.2-8.2,9-9.9,16.3-8.3,36.2l.8,9.6-3.5,3.6c-3.3,3.6-3.6,3.7-8.9,3.1-8.8-.9-10.5,2.1-7.2,12.8a62.42,62.42,0,0,1,1.8,6.4c0,.6-4.4,1.1-11,1.1-6,.1-16.5.6-23.1,1.1-10.6.8-12.7,1.2-16.1,3.5-4.8,3.1-10.1,10.9-15.3,22.3-3.9,8.4-6.7,11.5-10.5,11.5-8.2,0-14.1,16.8-10.1,28.6,2.2,6.4,2,9-.6,10.8-3,2.1-2.9,2.1-7.9-1.9-5.6-4.5-9.5-4.6-16.8-.4a45.12,45.12,0,0,0-18.6,20.3c-3.6,7.9-8.3,12.6-12.6,12.6-4.9,0-6.1-4.3-3.8-13.5a25,25,0,0,0,.5-8c-.9-4.7-6.7-11.1-11.4-12.5-2-.7-5.7-2.1-8-3.2-5.9-2.8-10.4-1.4-16,4.7-4.5,5-7.1,5.6-12.7,2.9-3.5-1.6-7.8-8.4-9-14.4a34.67,34.67,0,0,0-2.1-6.2C3,792,3,792,7.5,790.85c6.5-1.6,24.1-14.3,35.1-25.3,6.3-6.3,10.6-11.7,13.9-17.4,5.2-9.1,9.8-13.6,16.6-16.2,3.7-1.5,4.9-2.7,7.1-7.1a91.46,91.46,0,0,1,10.2-13.7c4.1-4.6,8.5-10.4,9.7-12.9,2-4.2,2.1-5,1-11.2-1.5-8.8-.9-12,9-42.6,8.8-27.1,14.2-41.9,29.9-82,5.6-14.3,12.7-32.8,15.7-41s5.9-15.4,6.4-15.9,2.1.2,4.2,2.2c3,2.9,3.9,3.2,9.4,3.2,3.9,0,7.2.6,9,1.7,4.1,2.3,7.8,1.1,11.1-3.7,3.4-5,4.9-5.5,10.9-3.5a131.93,131.93,0,0,0,15.1,2.9c11.6,1.6,14.1,2.8,17.8,8.9,3.3,5.3,5.1,6.7,8.7,6.7,4.4,0,6.2-1.4,10.6-8.5,3.5-5.5,4.6-6.5,7-6.5,1.8,0,3.2.7,3.7,1.7s.8,7.4.8,14.1c.1,11.7.2,12.5,2.5,14.3,4.4,3.6,8.1,2.3,11.9-4.1,5.3-9,15.7-15.2,26.5-15.8l6.7-.4,1.6,3.8a42.28,42.28,0,0,1,2.1,11.5c.5,6.1.2,8.1-1.2,10.2-2.3,3.6-1.4,5.4,3.4,6.7,7.3,1.9,11.4,0,20.7-9.6,8.5-8.8,9-9,13.9-5.7,3.8,2.6,6.4,1.6,8.5-3,2.8-6,2.5-8.3-1.6-14.3-3.4-4.9-3.5-5.4-2.4-8.8S374,496,376.1,496a14,14,0,0,1,4.1,1.6c4,2.1,7.1,1.1,9.9-2.9,3.4-4.8,6.1-7.7,7.5-7.7A9.4,9.4,0,0,1,401.1,488.85Z"/></g></g></svg>