<svg width="50" height="50" viewBox="0 0 50 50" fill="none" xmlns="http://www.w3.org/2000/svg">
<path d="M36.8898 28.5565L42.4067 34.0734C43.1486 34.8153 43.1486 36.0181 42.4067 36.7599C38.3959 40.7708 32.0461 41.2221 27.5083 37.8187L24.2262 35.3571C20.5938 32.6329 17.3671 29.4062 14.6429 25.7738L12.1813 22.4917C8.77793 17.9539 9.22919 11.6041 13.2401 7.59327C13.9819 6.8514 15.1847 6.8514 15.9266 7.59327L21.4435 13.1102C22.2571 13.9238 22.2571 15.2429 21.4435 16.0565L19.3161 18.1839C18.978 18.522 18.8942 19.0385 19.1081 19.4661C21.5803 24.4105 25.5895 28.4197 30.5339 30.8919C30.9615 31.1058 31.478 31.022 31.8161 30.6839L33.9435 28.5565C34.7571 27.7429 36.0762 27.7429 36.8898 28.5565Z" fill="#CEE6C0"/>
<path fill-rule="evenodd" clip-rule="evenodd" d="M42.4068 36.7599C43.1482 36.0186 43.1487 34.817 42.4084 34.075C42.4079 34.0745 42.4074 34.0739 42.4068 34.0734L36.8899 28.5565C36.8894 28.556 36.8889 28.5554 36.8884 28.5549C36.0747 27.7429 34.7567 27.7434 33.9436 28.5565L32.2918 30.2083L40.4268 38.3434C41.1313 37.8988 41.7962 37.3706 42.4068 36.7599ZM19.7918 17.7083L21.4436 16.0565C22.2572 15.2429 22.2572 13.9238 21.4436 13.1102L15.9267 7.59326C15.185 6.8516 13.9827 6.8514 13.2408 7.59266C13.2406 7.59286 13.2404 7.59306 13.2402 7.59327C13.2397 7.59376 13.2392 7.59426 13.2387 7.59475C12.6286 8.20502 12.101 8.86941 11.6567 9.5733L19.7918 17.7083Z" fill="#EE6C59"/>
</svg>
